<?xml version="1.0" encoding="UTF-8" standalone="no"?>
<!DOCTYPE svg PUBLIC "-//W3C//DTD SVG 1.1//EN"
 "http://www.w3.org/Graphics/SVG/1.1/DTD/svg11.dtd">
<!-- Generated by graphviz version 2.38.0 (20140413.2041)
 -->
<!-- Title: structs Pages: 1 -->
<svg width="734pt" height="547pt"
 viewBox="0.00 0.00 734.00 547.00" xmlns="http://www.w3.org/2000/svg" xmlns:xlink="http://www.w3.org/1999/xlink">
<g id="graph0" class="graph" transform="scale(1 1) rotate(0) translate(4 543)">
<title>structs</title>
<polygon fill="white" stroke="none" points="-4,4 -4,-543 730,-543 730,4 -4,4"/>
<!-- __START__ -->
<g id="node1" class="node"><title>__START__</title>
<image xlink:href="__START__.PNG" width="326px" height="99px" preserveAspectRatio="xMinYMin meet" x="33" y="-528.5"/>
</g>
<!-- test -->
<g id="node2" class="node"><title>test</title>
<image xlink:href="test.PNG" width="326px" height="83px" preserveAspectRatio="xMinYMin meet" x="33" y="-373.5"/>
</g>
<!-- __START__&#45;&gt;test -->
<g id="edge1" class="edge"><title>__START__:N&#45;&gt;test:D</title>
<path fill="none" stroke="blue" d="M196,-422.5C196,-407.771 196,-401.758 196,-390.707"/>
<polygon fill="blue" stroke="blue" points="199.5,-390.5 196,-380.5 192.5,-390.5 199.5,-390.5"/>
<text text-anchor="middle" x="190.824" y="-399.481" font-family="Times New Roman,serif" font-size="14.00" fill="blue"> </text>
</g>
<!-- test&#45;&gt;test -->
<g id="edge2" class="edge"><title>test:T&#45;&gt;test:L</title>
<path fill="none" stroke="green" d="M28.0671,-284.49C12.5358,-251.531 1,-253.072 1,-332 1,-402.912 10.3116,-411.358 23.4665,-388.44"/>
<polygon fill="green" stroke="green" points="26.5984,-390.003 28.0671,-379.51 20.3758,-386.797 26.5984,-390.003"/>
<text text-anchor="middle" x="14.6269" y="-265.979" font-family="Times New Roman,serif" font-size="14.00" fill="green">T</text>
</g>
<!-- __Label__1 -->
<g id="node3" class="node"><title>__Label__1</title>
<image xlink:href="__Label__1.PNG" width="326px" height="85px" preserveAspectRatio="xMinYMin meet" x="200" y="-234.5"/>
</g>
<!-- test&#45;&gt;__Label__1 -->
<g id="edge3" class="edge"><title>test:F&#45;&gt;__Label__1:D</title>
<path fill="none" stroke="red" d="M363,-283.5C363,-268.771 363,-262.758 363,-251.707"/>
<polygon fill="red" stroke="red" points="366.5,-251.5 363,-241.5 359.5,-251.5 366.5,-251.5"/>
<text text-anchor="middle" x="368.176" y="-260.481" font-family="Times New Roman,serif" font-size="14.00" fill="red">F</text>
</g>
<!-- __Label__2 -->
<g id="node4" class="node"><title>__Label__2</title>
<image xlink:href="__Label__2.PNG" width="326px" height="84px" preserveAspectRatio="xMinYMin meet" x="386" y="-94"/>
</g>
<!-- __Label__1&#45;&gt;__Label__2 -->
<g id="edge5" class="edge"><title>__Label__1:F&#45;&gt;__Label__2:D</title>
<path fill="none" stroke="red" d="M530,-142.5C530,-126.176 542.303,-122.387 547.109,-110.959"/>
<polygon fill="red" stroke="red" points="550.573,-111.477 549,-101 543.696,-110.171 550.573,-111.477"/>
<text text-anchor="middle" x="536.643" y="-119.935" font-family="Times New Roman,serif" font-size="14.00" fill="red">F</text>
</g>
<!-- test1 -->
<g id="node5" class="node"><title>test1</title>
<image xlink:href="test1.PNG" width="326px" height="84px" preserveAspectRatio="xMinYMin meet" x="14" y="-94"/>
</g>
<!-- __Label__1&#45;&gt;test1 -->
<g id="edge4" class="edge"><title>__Label__1:T&#45;&gt;test1:D</title>
<path fill="none" stroke="green" d="M196,-142.5C196,-126.176 183.697,-122.387 178.891,-110.959"/>
<polygon fill="green" stroke="green" points="182.304,-110.171 177,-101 175.427,-111.477 182.304,-110.171"/>
<text text-anchor="middle" x="189.357" y="-119.935" font-family="Times New Roman,serif" font-size="14.00" fill="green">T</text>
</g>
</g>
</svg>
